<?xml version="1.0" encoding="utf-8"?>
<!-- Generator: Adobe Illustrator 22.1.0, SVG Export Plug-In . SVG Version: 6.00 Build 0)  -->
<svg width="380px" height="131px" version="1.1" id="Layer_2_1_" xmlns="http://www.w3.org/2000/svg" xmlns:xlink="http://www.w3.org/1999/xlink" x="0px" y="0px"
	 viewBox="0 0 667.6 229.3" style="enable-background:new 0 0 667.6 229.3;" xml:space="preserve">
<style type="text/css">
	.st0{fill:url(#SVGID_1_);}
	.st1{fill:#172850;}
	.st2{fill:#1059C4;}
</style>
<title>Artboard 1 copy</title>
<g>
	
		<linearGradient id="SVGID_1_" gradientUnits="userSpaceOnUse" x1="91.705" y1="-15.67" x2="91.705" y2="165.1" gradientTransform="matrix(1 0 0 -1 0 231.26)">
		<stop  offset="0" style="stop-color:#243050"/>
		<stop  offset="0.19" style="stop-color:#233154"/>
		<stop  offset="0.38" style="stop-color:#213660"/>
		<stop  offset="0.56" style="stop-color:#1E3C73"/>
		<stop  offset="0.74" style="stop-color:#19468F"/>
		<stop  offset="0.92" style="stop-color:#1353B2"/>
		<stop  offset="1" style="stop-color:#1059C4"/>
	</linearGradient>
	<path class="st0" d="M146.6,136.1c26.9-6.1,36.2-27,36.8-48.5V50c0-27.6-22.4-50-50-50H93.7C42,0,0,41.9,0,93.7v121.1
		c0,8,6.5,14.4,14.4,14.4h17c8,0,14.4-6.5,14.4-14.4c0,0,0,0,0,0v-117c0-28.7,23.3-52,52-52h31.4c4.6,0,8.4,3.7,8.4,8.4v29.1
		c0,4.6-3.7,8.4-8.4,8.4h-17.9c-10.8,0-19.6,8.8-19.6,19.6v103.8c0,7.8,6.3,14.2,14.2,14.2h0H159c7.2,0,13-5.9,13-13
		c0-2.6-0.8-5.1-2.2-7.2L137,160.2c-4.8-7.2-2.9-17,4.3-21.8C143,137.3,144.7,136.5,146.6,136.1z"/>
	<g>
		<g>
			<path class="st1" d="M259.1,112.1l-11.8-20.2c-0.8,0.1-1.6,0.1-2.3,0.1h-14.7v20.1h-12.5V46H245c16.8,0,26.4,8.1,26.4,22.4
				c0,10.2-4.6,17.6-12.9,21.1l14.9,22.5H259.1z M230.3,81H245c9.3,0,14.5-4,14.5-12.2c0-8-5.2-11.9-14.5-11.9h-14.7V81z"/>
			<path class="st1" d="M344.3,97.4h-31.8l-6.2,14.7h-12.9l29-66.1h12.9l28.5,66.1h-13.4L344.3,97.4z M339.8,86.6l-11.3-27.4
				l-11.5,27.4H339.8z"/>
			<path class="st1" d="M402.3,46l21.6,42l21.4-42h14.2v66.1h-11.4V64.4l-20.3,40h-8l-20.4-40v47.6h-11.4V46H402.3z"/>
			<path class="st1" d="M504.8,46v66.1h-12.5V46H504.8z"/>
			<path class="st1" d="M563.1,100.8c9.7,0,15.8-6,15.8-16.5V46h12.5v38.3c0,17.1-10.8,27.7-28.3,27.7c-17.7,0-28.6-10.6-28.6-27.7
				V46H547v38.3C547,94.6,553.3,100.8,563.1,100.8z"/>
			<path class="st1" d="M642.4,56.5c-5.9,0-9.7,2.2-9.7,6.3c0,13.5,35,6.2,34.9,29.9c0,12.2-10.6,19.4-24.9,19.4
				c-10.1-0.1-19.9-3.8-27.6-10.4l5.2-10.6c6.7,6.1,15.5,9.8,22.5,9.8S654,98,654,93.4c0-13.8-35-6-35-29.4
				c0-11.4,9.8-18.8,24.4-18.8c8.3,0,16.5,2.4,23.5,6.9l-5,10.9C654.9,58.6,647.4,56.5,642.4,56.5z"/>
		</g>
		<g>
			<path class="st2" d="M234.6,143.9c-5.9,0-10.7,4.8-10.7,10.7c0,5.9,4.8,10.7,10.7,10.7c3.2-0.1,6.3-1.4,8.6-3.7l3.6,4
				c-3.3,3.4-7.8,5.3-12.5,5.4c-8.9,0.2-16.3-6.9-16.5-15.8c0-0.2,0-0.4,0-0.5c0-9.2,7.3-16.1,16.7-16.1c4.6,0,9,1.9,12.2,5.1
				l-3.5,4.4C241,145.5,237.9,144,234.6,143.9z"/>
			<path class="st2" d="M288,154.7c0,9.2-7.3,16.3-16.9,16.3s-16.8-7.2-16.8-16.3s7.3-16.1,16.9-16.1
				C280.7,138.5,288,145.5,288,154.7z M260.5,154.7c0,6,4.8,10.8,10.7,10.9c6,0,10.8-4.8,10.8-10.7s-4.8-10.8-10.7-10.8
				C265.4,143.9,260.5,148.7,260.5,154.7L260.5,154.7z"/>
			<path class="st2" d="M349.4,144c-2.8,0-4.7,1.1-4.7,3.1c0,6.5,17,3.1,16.9,14.5c0,5.9-5.2,9.4-12.1,9.4c-4.9,0-9.7-1.8-13.4-5.1
				l2.5-5.1c3.2,3,7.5,4.8,10.9,4.8s5.4-1.4,5.4-3.6c0-6.7-17-2.9-16.9-14.3c0-5.6,4.7-9.1,11.8-9.1c4,0,8,1.2,11.4,3.4l-2.4,5.3
				C356.1,145.3,352.8,144.2,349.4,144z"/>
			<path class="st2" d="M386.8,165.5c4.7,0,7.7-2.9,7.7-8v-19h6v19c0,8.3-5.2,13.4-13.7,13.4s-13.8-5.2-13.8-13.5v-19h6v19
				C379,162.5,382.1,165.5,386.8,165.5z"/>
			<path class="st2" d="M419.8,138.5v27h13.6v5.5h-19.7l0-32.4L419.8,138.5z"/>
			<path class="st2" d="M465.2,138.5v5.4h-9.8v27h-6.1v-27.1h-9.8v-5.4L465.2,138.5z"/>
			<path class="st2" d="M481,138.5v32.4h-6v-32.4L481,138.5z"/>
			<path class="st2" d="M522,138.5V171h-5.7l-16.2-22.6V171h-6l0-32.5h5.7l16.3,22.7v-22.7L522,138.5z"/>
			<path class="st2" d="M556.2,154.8h5.3v12c-3.7,2.6-8,4.1-12.5,4.1c-9.4,0-16.7-7.2-16.7-16.3s7.4-16.1,17.1-16.1
				c4.5,0,8.9,1.6,12.4,4.6l-3.4,4.5c-2.4-2.3-5.6-3.6-8.9-3.6c-6-0.2-10.9,4.5-11.1,10.5s4.5,10.9,10.5,11.1c0.2,0,0.4,0,0.7,0
				c2.4-0.1,4.8-0.8,6.8-2L556.2,154.8z"/>
			<path class="st2" d="M324.8,138.5V171h-5.7l-16.3-22.6V171h-5.9v-32.5h5.7l16.3,22.7v-22.7L324.8,138.5z"/>
		</g>
	</g>
</g>
</svg>
